<svg width="81" height="80" viewBox="0 0 81 80" fill="none" xmlns="http://www.w3.org/2000/svg">
<g clip-path="url(#clip0_243_1202)">
<path d="M38.6745 68.7062C55.8049 68.7062 69.6918 54.837 69.6918 37.7286C69.6918 20.6201 55.8049 6.75098 38.6745 6.75098C21.5441 6.75098 7.65723 20.6201 7.65723 37.7286C7.65723 54.837 21.5441 68.7062 38.6745 68.7062Z" fill="#0B3D91"/>
<path d="M36.8428 13.0481C37.0349 13.0481 37.1906 12.8926 37.1906 12.7008C37.1906 12.509 37.0349 12.3535 36.8428 12.3535C36.6508 12.3535 36.4951 12.509 36.4951 12.7008C36.4951 12.8926 36.6508 13.0481 36.8428 13.0481Z" fill="white"/>
<path d="M40.4132 13.511C40.6052 13.511 40.7609 13.3555 40.7609 13.1637C40.7609 12.9719 40.6052 12.8164 40.4132 12.8164C40.2211 12.8164 40.0654 12.9719 40.0654 13.1637C40.0654 13.3555 40.2211 13.511 40.4132 13.511Z" fill="white"/>
<path d="M45.0958 19.8078C45.2878 19.8078 45.4435 19.6524 45.4435 19.4606C45.4435 19.2688 45.2878 19.1133 45.0958 19.1133C44.9037 19.1133 44.748 19.2688 44.748 19.4606C44.748 19.6524 44.9037 19.8078 45.0958 19.8078Z" fill="white"/>
<path d="M19.4102 52.2209C19.6023 52.2209 19.758 52.0654 19.758 51.8737C19.758 51.6819 19.6023 51.5264 19.4102 51.5264C19.2182 51.5264 19.0625 51.6819 19.0625 51.8737C19.0625 52.0654 19.2182 52.2209 19.4102 52.2209Z" fill="white"/>
<path d="M20.3145 54.9992C20.5066 54.9992 20.6623 54.8438 20.6623 54.652C20.6623 54.4602 20.5066 54.3047 20.3145 54.3047C20.1225 54.3047 19.9668 54.4602 19.9668 54.652C19.9668 54.8438 20.1225 54.9992 20.3145 54.9992Z" fill="white"/>
<path d="M16.0026 52.5504C16.1464 52.5504 16.263 52.434 16.263 52.2903C16.263 52.1467 16.1464 52.0303 16.0026 52.0303C15.8588 52.0303 15.7422 52.1467 15.7422 52.2903C15.7422 52.434 15.8588 52.5504 16.0026 52.5504Z" fill="white"/>
<path d="M30.144 58.009C30.2882 58.009 30.4052 57.8922 30.4052 57.7482C30.4052 57.6041 30.2882 57.4873 30.144 57.4873C29.9997 57.4873 29.8828 57.6041 29.8828 57.7482C29.8828 57.8922 29.9997 58.009 30.144 58.009Z" fill="white"/>
<path d="M52.3229 53.4079C52.4667 53.4079 52.5833 53.2914 52.5833 53.1478C52.5833 53.0041 52.4667 52.8877 52.3229 52.8877C52.1791 52.8877 52.0625 53.0041 52.0625 53.1478C52.0625 53.2914 52.1791 53.4079 52.3229 53.4079Z" fill="white"/>
<path d="M58.768 46.4162C58.9123 46.4162 59.0292 46.2994 59.0292 46.1554C59.0292 46.0113 58.9123 45.8945 58.768 45.8945C58.6238 45.8945 58.5068 46.0113 58.5068 46.1554C58.5068 46.2994 58.6238 46.4162 58.768 46.4162Z" fill="white"/>
<path d="M27.1764 21.7526C27.3202 21.7526 27.4368 21.6361 27.4368 21.4925C27.4368 21.3489 27.3202 21.2324 27.1764 21.2324C27.0326 21.2324 26.916 21.3489 26.916 21.4925C26.916 21.6361 27.0326 21.7526 27.1764 21.7526Z" fill="white"/>
<path d="M34.2702 16.5494C34.414 16.5494 34.5306 16.433 34.5306 16.2894C34.5306 16.1457 34.414 16.0293 34.2702 16.0293C34.1264 16.0293 34.0098 16.1457 34.0098 16.2894C34.0098 16.433 34.1264 16.5494 34.2702 16.5494Z" fill="white"/>
<path d="M33.4997 16.0397C33.6435 16.0397 33.7601 15.9232 33.7601 15.7796C33.7601 15.636 33.6435 15.5195 33.4997 15.5195C33.3558 15.5195 33.2393 15.636 33.2393 15.7796C33.2393 15.9232 33.3558 16.0397 33.4997 16.0397Z" fill="white"/>
<path d="M32.8044 15.5309C32.9482 15.5309 33.0648 15.4145 33.0648 15.2708C33.0648 15.1272 32.9482 15.0107 32.8044 15.0107C32.6605 15.0107 32.5439 15.1272 32.5439 15.2708C32.5439 15.4145 32.6605 15.5309 32.8044 15.5309Z" fill="white"/>
<path d="M28.2887 23.0963C28.4326 23.0963 28.5491 22.9799 28.5491 22.8362C28.5491 22.6926 28.4326 22.5762 28.2887 22.5762C28.1449 22.5762 28.0283 22.6926 28.0283 22.8362C28.0283 22.9799 28.1449 23.0963 28.2887 23.0963Z" fill="white"/>
<path d="M38.7379 9.55726C38.8818 9.55726 38.9984 9.44082 38.9984 9.29719C38.9984 9.15355 38.8818 9.03711 38.7379 9.03711C38.5941 9.03711 38.4775 9.15355 38.4775 9.29719C38.4775 9.44082 38.5941 9.55726 38.7379 9.55726Z" fill="white"/>
<path d="M40.4538 17.0582C40.5976 17.0582 40.7142 16.9418 40.7142 16.7982C40.7142 16.6545 40.5976 16.5381 40.4538 16.5381C40.3099 16.5381 40.1934 16.6545 40.1934 16.7982C40.1934 16.9418 40.3099 17.0582 40.4538 17.0582Z" fill="white"/>
<path d="M37.7477 15.5934C37.8915 15.5934 38.0081 15.477 38.0081 15.3333C38.0081 15.1897 37.8915 15.0732 37.7477 15.0732C37.6039 15.0732 37.4873 15.1897 37.4873 15.3333C37.4873 15.477 37.6039 15.5934 37.7477 15.5934Z" fill="white"/>
<path d="M33.111 17.5856C33.2548 17.5856 33.3714 17.4691 33.3714 17.3255C33.3714 17.1819 33.2548 17.0654 33.111 17.0654C32.9672 17.0654 32.8506 17.1819 32.8506 17.3255C32.8506 17.4691 32.9672 17.5856 33.111 17.5856Z" fill="white"/>
<path d="M53.5573 60.278C53.7011 60.278 53.8177 60.1615 53.8177 60.0179C53.8177 59.8743 53.7011 59.7578 53.5573 59.7578C53.4135 59.7578 53.2969 59.8743 53.2969 60.0179C53.2969 60.1615 53.4135 60.278 53.5573 60.278Z" fill="white"/>
<path d="M18.9702 53.8947C19.1144 53.8947 19.2313 53.778 19.2313 53.6339C19.2313 53.4898 19.1144 53.373 18.9702 53.373C18.8259 53.373 18.709 53.4898 18.709 53.6339C18.709 53.778 18.8259 53.8947 18.9702 53.8947Z" fill="white"/>
<path d="M37.0981 57.2512C37.2423 57.2512 37.3593 57.1344 37.3593 56.9903C37.3593 56.8463 37.2423 56.7295 37.0981 56.7295C36.9538 56.7295 36.8369 56.8463 36.8369 56.9903C36.8369 57.1344 36.9538 57.2512 37.0981 57.2512Z" fill="white"/>
<path d="M24.3657 53.6858C24.5099 53.6858 24.6269 53.569 24.6269 53.4249C24.6269 53.2808 24.5099 53.1641 24.3657 53.1641C24.2214 53.1641 24.1045 53.2808 24.1045 53.4249C24.1045 53.569 24.2214 53.6858 24.3657 53.6858Z" fill="white"/>
<path d="M26.6206 57.3615C26.7648 57.3615 26.8817 57.2448 26.8817 57.1007C26.8817 56.9566 26.7648 56.8398 26.6206 56.8398C26.4763 56.8398 26.3594 56.9566 26.3594 57.1007C26.3594 57.2448 26.4763 57.3615 26.6206 57.3615Z" fill="white"/>
<path d="M43.2184 55.0455C43.3622 55.0455 43.4788 54.9291 43.4788 54.7855C43.4788 54.6418 43.3622 54.5254 43.2184 54.5254C43.0746 54.5254 42.958 54.6418 42.958 54.7855C42.958 54.9291 43.0746 55.0455 43.2184 55.0455Z" fill="white"/>
<path d="M52.3688 49.8883C52.5126 49.8883 52.6292 49.7719 52.6292 49.6282C52.6292 49.4846 52.5126 49.3682 52.3688 49.3682C52.225 49.3682 52.1084 49.4846 52.1084 49.6282C52.1084 49.7719 52.225 49.8883 52.3688 49.8883Z" fill="white"/>
<path d="M59.3063 53.0543C59.4501 53.0543 59.5667 52.9379 59.5667 52.7943C59.5667 52.6506 59.4501 52.5342 59.3063 52.5342C59.1625 52.5342 59.0459 52.6506 59.0459 52.7943C59.0459 52.9379 59.1625 53.0543 59.3063 53.0543Z" fill="white"/>
<path d="M61.6706 54.5651C61.8144 54.5651 61.931 54.4486 61.931 54.305C61.931 54.1614 61.8144 54.0449 61.6706 54.0449C61.5267 54.0449 61.4102 54.1614 61.4102 54.305C61.4102 54.4486 61.5267 54.5651 61.6706 54.5651Z" fill="white"/>
<path d="M62.0592 50.444C62.2031 50.444 62.3196 50.3275 62.3196 50.1839C62.3196 50.0403 62.2031 49.9238 62.0592 49.9238C61.9154 49.9238 61.7988 50.0403 61.7988 50.1839C61.7988 50.3275 61.9154 50.444 62.0592 50.444Z" fill="white"/>
<path d="M27.5641 44.61C27.7079 44.61 27.8245 44.4936 27.8245 44.3499C27.8245 44.2063 27.7079 44.0898 27.5641 44.0898C27.4203 44.0898 27.3037 44.2063 27.3037 44.3499C27.3037 44.4936 27.4203 44.61 27.5641 44.61Z" fill="white"/>
<path d="M27.6632 50.6702C27.8552 50.6702 28.0109 50.5147 28.0109 50.3229C28.0109 50.1311 27.8552 49.9756 27.6632 49.9756C27.4711 49.9756 27.3154 50.1311 27.3154 50.3229C27.3154 50.5147 27.4711 50.6702 27.6632 50.6702Z" fill="white"/>
<path d="M29.7501 55.0686C29.9421 55.0686 30.0978 54.9131 30.0978 54.7213C30.0978 54.5295 29.9421 54.374 29.7501 54.374C29.558 54.374 29.4023 54.5295 29.4023 54.7213C29.4023 54.9131 29.558 55.0686 29.7501 55.0686Z" fill="white"/>
<path d="M54.7393 50.4846C54.9314 50.4846 55.0871 50.3291 55.0871 50.1373C55.0871 49.9455 54.9314 49.79 54.7393 49.79C54.5473 49.79 54.3916 49.9455 54.3916 50.1373C54.3916 50.3291 54.5473 50.4846 54.7393 50.4846Z" fill="white"/>
<path d="M63.7344 49.9758C63.9265 49.9758 64.0822 49.8203 64.0822 49.6285C64.0822 49.4367 63.9265 49.2812 63.7344 49.2812C63.5424 49.2812 63.3867 49.4367 63.3867 49.6285C63.3867 49.8203 63.5424 49.9758 63.7344 49.9758Z" fill="white"/>
<path d="M59.2833 48.0774C59.4753 48.0774 59.631 47.9219 59.631 47.7301C59.631 47.5383 59.4753 47.3828 59.2833 47.3828C59.0912 47.3828 58.9355 47.5383 58.9355 47.7301C58.9355 47.9219 59.0912 48.0774 59.2833 48.0774Z" fill="white"/>
<path d="M54.7393 48.2619C54.9314 48.2619 55.0871 48.1065 55.0871 47.9147C55.0871 47.7229 54.9314 47.5674 54.7393 47.5674C54.5473 47.5674 54.3916 47.7229 54.3916 47.9147C54.3916 48.1065 54.5473 48.2619 54.7393 48.2619Z" fill="white"/>
<path d="M45.3675 12.4825L46.2322 12.3999L45.369 12.3513C45.342 12.1846 45.2083 12.0542 45.0398 12.0326L44.9572 11.1729L44.9077 12.0395C44.7516 12.0742 44.6318 12.2047 44.6125 12.3667L43.7285 12.447L44.6187 12.4948C44.6512 12.6438 44.7717 12.7603 44.9232 12.7881L45.0035 13.6741L45.0507 12.7896C45.2106 12.7626 45.3373 12.6399 45.3675 12.4825Z" fill="white"/>
<path d="M30.7737 22.0977L31.6384 22.0152L30.7753 21.9665C30.749 21.7998 30.6145 21.6694 30.4461 21.6478L30.3634 20.7881L30.3147 21.6547C30.1579 21.6895 30.0381 21.8199 30.0188 21.982L29.1348 22.0622L30.0249 22.1101C30.0574 22.259 30.1779 22.3756 30.3294 22.4033L30.4098 23.2893L30.4577 22.4049C30.6176 22.3786 30.7444 22.2552 30.7737 22.0977Z" fill="white"/>
<path d="M63.1001 47.5167L63.9648 47.4341L63.1016 47.3855C63.0754 47.2188 62.9409 47.0884 62.7725 47.0668L62.6898 46.207L62.6411 47.0737C62.485 47.1084 62.3652 47.2388 62.3459 47.4009L61.4619 47.4812L62.3521 47.529C62.3846 47.678 62.5051 47.7945 62.6565 47.8223L62.7369 48.7082L62.7848 47.8238C62.9432 47.7976 63.07 47.6749 63.1001 47.5167Z" fill="white"/>
<path d="M27.8528 60.8079L28.7175 60.7253L27.8544 60.6767C27.8273 60.51 27.6936 60.3796 27.5252 60.358L27.4425 59.499L27.3938 60.3649C27.237 60.3996 27.1172 60.5301 27.0979 60.6921L26.2139 60.7724L27.104 60.8202C27.1365 60.9692 27.2571 61.0865 27.4085 61.1135L27.4889 61.9995L27.5368 61.115C27.696 61.0888 27.8235 60.9653 27.8528 60.8079Z" fill="white"/>
<path d="M60.353 54.3253L61.2177 54.2427L60.3546 54.1941C60.3283 54.0274 60.1938 53.8969 60.0254 53.8753L59.9427 53.0156L59.894 53.8815C59.7379 53.9162 59.6182 54.0467 59.5988 54.2087L58.7148 54.289L59.605 54.3368C59.6375 54.4858 59.758 54.6023 59.9095 54.6301L59.9898 55.5161L60.0378 54.6316C60.1962 54.6062 60.3237 54.4827 60.353 54.3253Z" fill="white"/>
<path d="M46.0302 30.3078C42.4239 31.7078 38.9065 32.9572 35.9384 33.8848C29.9073 35.771 13.4057 40.8768 3.4375 47.3131L4.27205 47.6372C10.3457 44.2107 14.2935 43.1341 18.0884 41.9418C22.2148 40.6453 35.5544 37.5275 41.5948 35.8296C43.6355 35.2562 46.0256 34.5053 48.557 33.5916C47.9682 32.7712 47.347 31.9486 46.6932 31.1274C46.4745 30.8504 46.2528 30.5772 46.0302 30.3078ZM50.4363 36.3729C49.5631 36.9618 48.8314 37.4318 48.319 37.7281C45.3518 39.4414 30.8855 49.3042 27.5945 51.5731C24.3035 53.842 15.169 62.4546 12.48 64.9551L12.3872 65.973C21.0572 58.1939 23.7772 56.2753 27.2236 53.6568C31.489 50.4155 40.3128 44.4191 43.3118 42.4975C46.1786 40.6607 48.7641 38.9714 51.0846 37.4256C51.0468 37.3623 51.0089 37.299 50.971 37.235C50.7964 36.9487 50.6179 36.6616 50.4363 36.3729ZM63.9892 22.0772C59.7655 24.5499 53.1084 27.5342 46.65 30.0663C46.8045 30.2554 46.9583 30.446 47.1113 30.6381C47.833 31.5457 48.5138 32.4594 49.1544 33.374C54.2312 31.5063 59.8018 28.9997 64.2218 25.966C62.1161 27.9587 55.1546 33.1548 50.91 36.0511C51.1287 36.4069 51.3404 36.7627 51.5452 37.1169C57.9758 32.8191 62.3031 29.6557 64.8245 27.5404C68.3018 24.6232 76.23 18.0943 79.2436 9.34277C73.9574 16.0577 67.7075 19.9002 63.9892 22.0772Z" fill="#FC3D21"/>
<path d="M34.6839 45.3982C34.0001 44.5385 33.0543 43.387 32.3441 42.4941C31.3944 41.3002 30.5159 40.094 29.7107 38.8893C29.4479 38.9549 29.186 39.0205 28.924 39.0861C29.8961 40.601 30.9756 42.1137 32.1517 43.5923C33.011 44.6727 33.7922 45.5425 34.1925 46.0835C34.2736 46.1931 34.4343 46.4354 34.6515 46.758C34.9018 46.5882 35.1545 46.4169 35.4095 46.244C35.163 45.9762 34.9196 45.6945 34.6839 45.3982ZM39.6758 49.9237C39.114 49.3927 37.7517 48.506 36.3337 47.1755C36.0208 47.39 35.7047 47.6077 35.3879 47.8268C36.3036 49.1156 37.5508 50.6985 38.5275 51.16C39.9988 51.8561 40.3952 50.6043 39.6758 49.9237ZM47.1117 30.6379C39.0043 20.4463 29.1002 14.8473 24.8301 18.236C21.5136 20.8677 22.8751 28.5588 27.4466 36.6382C27.683 36.5571 27.9172 36.4776 28.149 36.3989C23.535 28.5272 22.2724 21.2119 25.4004 18.7292C29.3313 15.6098 38.8227 21.2304 46.6952 31.1264C48.3249 33.1746 49.7575 35.2305 50.9707 37.2347C55.6163 44.9135 57.042 51.8576 53.8321 54.6922C52.85 55.5597 49.8487 55.9 45.9171 54.1327C45.8622 54.2014 45.9503 54.3874 46.0191 54.4329C49.4129 55.7958 52.6638 56.3152 54.305 55.0133C58.249 51.8831 55.2192 40.8295 47.1117 30.6379Z" fill="white"/>
<path d="M12.3398 31.8477H17.5326L21.8908 39.2332C21.8908 39.2332 21.8908 33.885 21.8908 33.4683C21.8908 32.82 21.0678 31.975 20.778 31.8477C21.1258 31.8477 24.1626 31.8477 24.3712 31.8477C24.151 31.9055 23.4439 32.7622 23.4439 33.4683C23.4439 33.8156 23.4439 41.5716 23.4439 41.942C23.4439 42.4629 24.1973 43.1806 24.5567 43.4585H19.5494L15.1217 36.0382C15.1217 36.0382 15.1217 41.5716 15.1217 41.8725C15.1217 42.4513 15.6896 43.007 16.2808 43.4816H12.4558C13.0005 43.2501 13.5221 42.5208 13.5685 41.942C13.6148 41.3632 13.5685 33.8966 13.5685 33.5725C13.5685 32.8664 12.8846 32.2875 12.3398 31.8477Z" fill="white"/>
<path d="M59.8393 43.4585H66.7475C66.365 43.3659 65.9361 42.9144 65.7043 42.3124C65.4725 41.7105 61.8097 31.8477 61.8097 31.8477H59.1832C58.4383 32.3832 57.6401 32.9482 56.7878 33.5432C56.7855 33.5648 56.7831 33.5864 56.7793 33.6072C56.6649 34.3018 54.6095 41.7367 54.4843 42.1041C54.3104 42.6134 53.4179 43.1806 53.0586 43.4816H56.7793C56.4084 43.0649 56.107 42.6597 56.1765 42.1967C56.2461 41.7336 56.4547 40.8075 56.4547 40.8075H60.3029C60.4768 41.2706 60.6066 41.6866 60.6738 42.0809C60.755 42.5555 60.2681 43.088 59.8393 43.4585ZM56.8025 39.3258L58.1006 35.089L59.8161 39.3258H56.8025ZM56.2175 32.2706C56.4084 32.1301 56.6 31.9889 56.7909 31.8477H55.7825C55.8829 31.9403 56.049 32.0861 56.2175 32.2706Z" fill="white"/>
<path d="M29.7957 42.1967C29.8652 41.7336 30.0739 40.8075 30.0739 40.8075H33.9221C34.0959 41.2706 34.2257 41.6866 34.293 42.0809C34.3741 42.5555 33.8873 43.088 33.4584 43.4585H39.5406C39.6673 43.3736 39.7932 43.2887 39.9192 43.2046C39.6835 42.9962 39.4664 42.6836 39.3234 42.3124C39.0916 41.7105 35.4289 31.8477 35.4289 31.8477H29.4016C29.6914 32.1139 30.5259 32.8316 30.3984 33.6072C30.2848 34.3018 28.2286 41.7367 28.1034 42.1041C27.9296 42.6134 27.0371 43.1806 26.6777 43.4816H30.3984C30.0275 43.0649 29.7261 42.6597 29.7957 42.1967ZM31.7198 35.089L33.4352 39.3258H30.4216L31.7198 35.089Z" fill="white"/>
<path d="M50.8056 37.6108C49.6713 38.3655 48.4743 39.1535 47.2132 39.9761C47.7789 40.2501 48.2294 40.5943 48.2726 41.0388C48.353 41.8738 46.6731 42.2775 45.1547 42.1038C44.851 42.0691 44.5527 41.9896 44.2684 41.8831C43.9531 42.0861 43.6347 42.2906 43.3117 42.4974C42.9833 42.7081 42.5846 42.9674 42.1295 43.2668V44.4653C42.4308 43.875 43.09 43.3463 43.6015 43.3193C43.8217 43.3077 44.5867 44.0139 47.7395 43.8402C49.2695 43.7561 52.2251 42.127 52.1788 40.2516C52.151 39.1434 51.5714 38.2791 50.8056 37.6108ZM42.1287 40.5063V41.7272C42.4076 41.5412 42.6827 41.3583 42.9524 41.18C42.5282 40.8852 42.2276 40.6097 42.1287 40.5063ZM49.7277 36.8444C49.434 36.6708 49.1365 36.5187 48.8514 36.3845C47.3678 35.6899 45.8146 35.5626 45.49 34.6249C45.2613 33.9635 45.9073 33.3515 47.4837 33.3747C49.06 33.3978 50.5205 34.3355 50.9146 34.6712V31.6846C50.7987 31.8003 50.2902 32.383 49.825 32.2865C48.9325 32.1013 47.4141 31.8598 45.6755 31.8698C43.6819 31.8814 41.9664 33.4202 41.9085 35.3658C41.8273 38.0861 44.0064 38.827 45.235 39.2553C45.3618 39.2993 45.5063 39.3464 45.6631 39.3966C46.8415 38.631 47.7735 38.0414 48.319 37.7273C48.6853 37.5166 49.1651 37.2141 49.7277 36.8444Z" fill="white"/>
</g>
<defs>
<clipPath id="clip0_243_1202">
<rect width="80" height="80" fill="white" transform="translate(0.5)"/>
</clipPath>
</defs>
</svg>
